<svg width="16" height="15" viewBox="0 0 16 15" fill="none" xmlns="http://www.w3.org/2000/svg">
<path d="M4.6494 8.24304C5.0996 8.24304 5.53386 8.21516 5.94422 8.15938V3.6534C5.53386 3.59762 5.0996 3.56973 4.6494 3.56973C2.07968 3.56973 0 4.51396 0 5.68129V6.13547C0 7.3028 2.07968 8.24304 4.6494 8.24304Z" fill="white"/>
<path d="M4.6494 10.5976C5.0996 10.5976 5.53386 10.5697 5.94422 10.5139V9.19121C5.53386 9.24699 5.0996 9.27487 4.6494 9.27487C2.41036 9.27487 0.537849 8.55376 0.0996016 7.5976C0.0358566 7.73704 0 7.88046 0 8.02787V8.48604C0 9.65336 2.07968 10.5976 4.6494 10.5976Z" fill="white"/>
<path d="M5.94422 11.6494V11.5458C5.53386 11.6016 5.0996 11.6295 4.6494 11.6295C2.41036 11.6295 0.537849 10.9084 0.0996016 9.95221C0.0318725 10.0956 0 10.2391 0 10.3865V10.8446C0 12.008 2.07968 12.9522 4.6494 12.9522C5.16335 12.9522 5.65737 12.9124 6.11952 12.8446C6.00398 12.6096 5.94422 12.3626 5.94422 12.1076V11.6494Z" fill="white"/>
<path d="M11.3525 0C8.78679 0 6.70312 0.944223 6.70312 2.10757V2.56574C6.70312 3.72908 8.78281 4.67331 11.3525 4.67331C13.9183 4.67331 16.0019 3.72908 16.0019 2.56574V2.10757C16.0019 0.944223 13.9223 0 11.3525 0Z" fill="white"/>
<path d="M11.3525 5.70519C9.11349 5.70519 7.24097 4.98407 6.80273 4.02789C6.73898 4.16734 6.70312 4.31076 6.70312 4.45817V4.91634C6.70312 6.07969 8.78281 7.02391 11.3525 7.02391C13.9183 7.02391 16.0019 6.07969 16.0019 4.91634V4.46216C16.0019 4.31475 15.9701 4.17132 15.9023 4.03188C15.4641 4.98805 13.5956 5.70519 11.3525 5.70519Z" fill="white"/>
<path d="M11.3525 8.05974C9.11349 8.05974 7.24097 7.33862 6.80273 6.38245C6.73898 6.52189 6.70312 6.66532 6.70312 6.81273V7.2709C6.70312 8.43425 8.78281 9.37847 11.3525 9.37847C13.9183 9.37847 16.0019 8.43425 16.0019 7.2709V6.81273C16.0019 6.66532 15.9701 6.52189 15.9023 6.38245C15.4641 7.34261 13.5956 8.05974 11.3525 8.05974Z" fill="white"/>
<path d="M11.3525 10.5406C9.11349 10.5406 7.24097 9.81946 6.80273 8.86328C6.73898 9.00272 6.70312 9.14615 6.70312 9.29356V9.75173C6.70312 10.9151 8.78281 11.8593 11.3525 11.8593C13.9183 11.8593 16.0019 10.9151 16.0019 9.75173V9.29356C16.0019 9.14615 15.9701 9.00272 15.9023 8.86328C15.4641 9.81946 13.5956 10.5406 11.3525 10.5406Z" fill="white"/>
<path d="M11.3525 12.8964C9.11349 12.8964 7.24097 12.1753 6.80273 11.2191C6.73898 11.3586 6.70312 11.502 6.70312 11.6494V12.1076C6.70312 13.2709 8.78281 14.2151 11.3525 14.2151C13.9183 14.2151 16.0019 13.2709 16.0019 12.1076V11.6494C16.0019 11.502 15.9701 11.3586 15.9023 11.2191C15.4641 12.1753 13.5956 12.8964 11.3525 12.8964Z" fill="white"/>
</svg>
