<svg width="19" height="19" viewBox="0 0 19 19" fill="none" xmlns="http://www.w3.org/2000/svg">
<path d="M17.2056 7.25452H16.9489C16.3401 7.25452 15.7937 6.86943 15.5369 6.29364C15.2802 5.68484 15.4086 5.04303 15.8597 4.59193L16.021 4.43056C16.3438 4.10782 16.3438 3.56503 16.021 3.24229L14.7704 1.99168C14.4477 1.66894 13.9049 1.66894 13.5822 1.99168L13.4208 2.15305C13.0027 2.57114 12.3279 2.69951 11.7521 2.47579C11.1433 2.21907 10.7912 1.67261 10.7912 1.06381V0.840092C10.7912 0.392659 10.4061 0.00390625 9.95503 0.00390625H8.19097C7.74354 0.00390625 7.35479 0.388992 7.35479 0.840092V1.09682C7.35479 1.70562 6.9697 2.25207 6.39391 2.5088C5.7851 2.76552 5.1433 2.63716 4.6922 2.18606L4.53083 2.02469C4.20809 1.70195 3.6653 1.70195 3.34256 2.02469L2.09195 3.27163C1.76921 3.59437 1.76921 4.13716 2.09195 4.4599L2.25332 4.62127C2.67141 5.03936 2.79977 5.71417 2.57606 6.28997C2.31933 6.89877 1.77288 7.25085 1.16408 7.25085H0.907353C0.456253 7.25452 0.071167 7.63594 0.071167 8.08704V9.85109C0.071167 10.2985 0.456253 10.6873 0.907353 10.6873H1.16408C1.77288 10.6873 2.31933 11.0724 2.57606 11.6482C2.83278 12.257 2.70442 12.8988 2.25332 13.3499L2.09195 13.5112C1.93058 13.6726 1.83523 13.8963 1.83523 14.12C1.83523 14.3438 1.93058 14.5675 2.09195 14.7288L3.34256 15.9795C3.6653 16.3022 4.20809 16.3022 4.53083 15.9795L4.6922 15.8181C4.98193 15.5284 5.36701 15.3707 5.7521 15.3707C5.94281 15.3707 6.17019 15.4037 6.3609 15.499C6.9697 15.7557 7.32178 16.3022 7.32178 16.911V17.1677C7.32178 17.6152 7.70687 18.0039 8.15797 18.0039H9.92203C10.3695 18.0039 10.7582 17.6188 10.7582 17.1677V16.911C10.7582 16.3022 11.1433 15.7557 11.7191 15.499C12.3279 15.2423 12.9697 15.3707 13.4208 15.8218L13.5822 15.9831C13.9049 16.3059 14.4477 16.3059 14.7704 15.9831L16.021 14.7325C16.3438 14.4098 16.3438 13.867 16.021 13.5442L15.8597 13.3829C15.4416 12.9354 15.3132 12.29 15.5369 11.7142C15.7937 11.1054 16.3401 10.7533 16.9489 10.7533H17.2056C17.6531 10.7533 18.0418 10.3682 18.0418 9.91711V8.15305C18.0418 7.63594 17.6567 7.25452 17.2056 7.25452ZM9.0565 12.8034C6.93669 12.8034 5.23865 11.1017 5.23865 8.98557C5.23865 6.86943 6.94036 5.16772 9.0565 5.16772C11.1726 5.16772 12.8743 6.86943 12.8743 8.98557C12.8743 11.1017 11.1726 12.8034 9.0565 12.8034Z" fill="#2AF3F3"/>
</svg>
