<svg width="10" height="12" viewBox="0 0 10 12" fill="none" xmlns="http://www.w3.org/2000/svg">
<path d="M9.00173 4.7C9.20173 3.5 8.30173 2.8 7.10173 2.4L7.50173 0.8L6.50173 0.5L6.10173 2.1C5.90173 2.1 5.60173 2 5.30173 1.9L5.70173 0.3L4.70173 0L4.30173 1.7C4.10173 1.7 3.90173 1.6 3.70173 1.5L2.40173 1.2L2.10173 2.2L2.80173 2.4C3.20173 2.5 3.30173 2.8 3.30173 3L2.80173 4.8H2.90173H2.80173L2.10173 7.4C2.00173 7.5 1.90173 7.7 1.60173 7.6L0.901733 7.4L0.401733 8.5L1.70173 8.9C1.90173 9 2.20173 9 2.40173 9.1L2.00173 10.7L3.00173 11L3.40173 9.4C3.70173 9.5 3.90173 9.5 4.20173 9.6L3.80173 11.2L4.80173 11.5L5.10173 9.9C6.80173 10.2 8.00173 10.1 8.60173 8.6C9.10173 7.4 8.60173 6.7 7.70173 6.2C8.40173 6 8.90173 5.6 9.00173 4.7ZM6.70173 7.9C6.40173 9.1 4.30173 8.4 3.70173 8.2L4.30173 6C4.90173 6.2 7.10173 6.6 6.70173 7.9ZM7.10173 4.7C6.80173 5.8 5.10173 5.2 4.50173 5.1L5.00173 3.1C5.60173 3.2 7.40173 3.5 7.10173 4.7Z" fill="#2D4D70"/>
</svg>
