<svg width="7" height="11" viewBox="0 0 7 11" fill="none" xmlns="http://www.w3.org/2000/svg">
<path d="M6.82122 6.94356C6.76397 6.78036 6.69527 6.64047 6.61512 6.52C6.53497 6.39954 6.41818 6.28297 6.26934 6.16834C6.1182 6.0537 5.98309 5.96044 5.86401 5.8905C5.74493 5.82055 5.58006 5.74089 5.36938 5.6554C5.16099 5.56797 4.99383 5.50386 4.87246 5.46111C4.75109 5.41837 4.57476 5.36008 4.34348 5.28625C4.13967 5.22019 3.98624 5.16967 3.88548 5.1347C3.78472 5.09973 3.6542 5.04921 3.48932 4.9851C3.32673 4.92098 3.20307 4.86269 3.12293 4.81412C3.04278 4.7636 2.95576 4.70337 2.86416 4.63148C2.77256 4.5596 2.70844 4.48188 2.6718 4.40222C2.63516 4.32062 2.61684 4.23124 2.61684 4.13604C2.61684 3.8854 2.74737 3.67945 3.00843 3.52013C3.26948 3.36081 3.6084 3.28115 4.02288 3.28115C4.20608 3.28115 4.39157 3.30252 4.58163 3.34527C4.7717 3.38801 4.93429 3.43659 5.06939 3.48905C5.2045 3.54345 5.33274 3.60173 5.45182 3.66585C5.5709 3.72997 5.65563 3.78048 5.706 3.81351C5.75638 3.84654 5.78844 3.86986 5.79989 3.87957C5.85714 3.91649 5.91439 3.93009 5.97622 3.91843C6.04263 3.91455 6.09072 3.8854 6.12736 3.82906L6.65634 3.01886C6.70901 2.94503 6.69756 2.87508 6.62428 2.80902C6.59909 2.78765 6.56474 2.76045 6.52581 2.73131C6.48688 2.70216 6.40215 2.64776 6.27163 2.57004C6.1411 2.49233 6.00141 2.42238 5.85714 2.36215C5.71058 2.30192 5.52052 2.23975 5.28923 2.17563C5.05566 2.11346 4.81521 2.07071 4.56789 2.0474V1.06816C4.56789 1.0157 4.54728 0.97296 4.50835 0.93993C4.46713 0.908844 4.41675 0.891357 4.35493 0.891357H3.47329C3.41604 0.891357 3.36795 0.908844 3.32673 0.943816C3.28551 0.978789 3.2649 1.01959 3.2649 1.06816V2.06683C2.5802 2.17757 2.02374 2.42627 1.59552 2.81097C1.1673 3.19566 0.954329 3.64254 0.954329 4.15352C0.954329 4.30507 0.972649 4.44885 1.00929 4.5868C1.04593 4.7228 1.09173 4.84715 1.14669 4.95595C1.20165 5.06476 1.2795 5.17162 1.37797 5.27848C1.47873 5.38339 1.57262 5.47471 1.66193 5.55049C1.75124 5.62626 1.86802 5.70398 2.01229 5.78558C2.15656 5.86718 2.28022 5.93324 2.38098 5.98181C2.48403 6.03233 2.61913 6.08868 2.78859 6.15279C2.95805 6.21691 3.09316 6.26742 3.19162 6.30045C3.29009 6.33348 3.42291 6.38011 3.59466 6.4384C3.83052 6.51612 4.00456 6.57635 4.11677 6.61909C4.23127 6.66184 4.37325 6.72013 4.54728 6.7959C4.72132 6.87167 4.84956 6.94162 4.92971 7.00379C5.00986 7.06597 5.08313 7.14368 5.14954 7.23694C5.21595 7.3302 5.24801 7.42735 5.24801 7.53032C5.24801 7.82176 5.1129 8.04714 4.84498 8.20646C4.57705 8.36578 4.26562 8.44544 3.91296 8.44544C3.75267 8.44544 3.59008 8.4299 3.42978 8.40075C2.86416 8.30361 2.33289 8.0724 1.84055 7.70713L1.82681 7.69547C1.78788 7.65467 1.73521 7.63913 1.6688 7.64496C1.6001 7.65273 1.54972 7.6741 1.51766 7.71102L0.851281 8.46293C0.784872 8.53676 0.789452 8.61253 0.865021 8.69025C0.88792 8.71162 0.92456 8.74659 0.979519 8.78934C1.03448 8.83403 1.13524 8.90397 1.28408 8.99723C1.43293 9.09243 1.59323 9.17987 1.76727 9.26341C1.9413 9.34696 2.16343 9.42856 2.43136 9.51016C2.69928 9.59177 2.97637 9.64811 3.2649 9.68114V10.6526C3.2649 10.7012 3.28551 10.742 3.32673 10.7769C3.36795 10.8119 3.41604 10.8294 3.47329 10.8294H4.35493C4.41675 10.8294 4.46713 10.8119 4.50606 10.7789C4.54499 10.7459 4.5656 10.7031 4.5656 10.6507V9.6792C5.25946 9.58399 5.82279 9.33141 6.2556 8.92146C6.6884 8.51344 6.90594 8.02577 6.90594 7.46038C6.90594 7.27969 6.87618 7.10677 6.82122 6.94356Z" fill="#2D4D70"/>
</svg>
