<svg width="10" height="11" viewBox="0 0 10 11" fill="none" xmlns="http://www.w3.org/2000/svg">
<path d="M6.66667 8.75127C5.27604 8.75127 4.06771 7.96305 3.46354 6.80802H6.66667V5.69723H3.10156C3.07292 5.51773 3.05469 5.33043 3.05469 5.14313C3.05469 4.95583 3.07292 4.76853 3.10156 4.58903H6.66667V3.47823H3.46354C4.0651 2.32321 5.27083 1.53498 6.66667 1.53498C7.5651 1.53498 8.38281 1.86276 9.01302 2.40385L10 1.42573C9.11719 0.634899 7.94792 0.148438 6.66667 0.148438C4.49219 0.148438 2.64323 1.53759 1.95833 3.47823H0V4.58903H1.70052C1.67708 4.77113 1.66667 4.95583 1.66667 5.14313C1.66667 5.33043 1.67708 5.51513 1.70052 5.69723H0V6.80802H1.95833C2.64323 8.74867 4.49219 10.1378 6.66667 10.1378C7.94792 10.1378 9.11719 9.65135 10 8.86053L9.01302 7.8772C8.38281 8.42089 7.5651 8.75127 6.66667 8.75127Z" fill="#2D4D70"/>
</svg>
