<svg width="13" height="8" viewBox="0 0 13 8" fill="none" xmlns="http://www.w3.org/2000/svg">
<g clip-path="url(#clip0_211_179)">
<path d="M12.7645 3.92312C10.4968 0.686896 6.05586 -0.116254 2.81964 2.15146C2.1346 2.6239 1.52042 3.23808 1.04798 3.92312L0.90625 4.13571L1.04798 4.34831C3.3157 7.58453 7.75664 8.38768 10.9929 6.11997C11.6779 5.64753 12.2921 5.03335 12.7645 4.34831L12.9062 4.13571L12.7645 3.92312ZM6.90625 6.6869C4.89838 6.6869 2.98499 5.74201 1.78027 4.13571C3.92987 1.30107 7.96924 0.73414 10.8039 2.88375C11.2763 3.23808 11.7015 3.66327 12.0559 4.13571C10.8275 5.74201 8.91412 6.6869 6.90625 6.6869Z" fill="white"/>
<path d="M6.97718 2.05756C5.8197 2.05756 4.89844 2.97882 4.89844 4.1363C4.89844 5.29378 5.8197 6.21504 6.97718 6.21504C8.13466 6.21504 9.05592 5.29378 9.05592 4.1363C9.0323 3.00244 8.11104 2.08118 6.97718 2.05756ZM6.97718 5.53C6.22127 5.53 5.6071 4.91582 5.6071 4.15992C5.6071 3.40401 6.22127 2.78984 6.97718 2.78984C7.73308 2.78984 8.34726 3.40401 8.34726 4.15992C8.32364 4.91582 7.73308 5.53 6.97718 5.53Z" fill="white"/>
<path d="M6.97722 4.91611C7.40774 4.91611 7.75675 4.5671 7.75675 4.13658C7.75675 3.70606 7.40774 3.35706 6.97722 3.35706C6.5467 3.35706 6.19769 3.70606 6.19769 4.13658C6.19769 4.5671 6.5467 4.91611 6.97722 4.91611Z" fill="white"/>
</g>
<defs>
<clipPath id="clip0_211_179">
<rect width="12" height="6.54331" fill="white" transform="translate(0.90625 0.852539)"/>
</clipPath>
</defs>
</svg>
